<svg width="25" height="17" viewBox="0 0 25 17" fill="none" xmlns="http://www.w3.org/2000/svg">
<path d="M16.8033 0C12.1639 -2.02792e-07 8.39345 3.75277 8.39345 8.40686L16.8033 8.40686L16.8033 0V0Z" fill="#2196F3"/>
<path d="M8.40979 0C3.77044 -2.02792e-07 -4.88964e-05 3.75277 -4.90998e-05 8.40686L8.40979 8.40686L8.40979 0Z" fill="#FFC107"/>
<path d="M16.8033 8.42328C16.8033 13.061 13.0492 16.8301 8.39345 16.8301L8.39345 8.42328L16.8033 8.42328Z" fill="#FFC107"/>
<path d="M8.40979 16.8301C3.77044 16.8301 -4.89358e-05 13.0774 -4.87324e-05 8.42328L8.40979 8.42328L8.40979 16.8301Z" fill="#F44336"/>
<path d="M16.5902 16.8301C21.2295 16.8301 25 13.0774 25 8.42328L16.5902 8.42328L16.5902 16.8301Z" fill="#FFC107"/>
<path d="M16.5902 -3.67606e-07C21.2295 -1.64814e-07 25 3.75277 25 8.40686L16.5902 8.40686L16.5902 -3.67606e-07Z" fill="#F44336"/>
</svg>
