<svg width="108" height="17" viewBox="0 0 108 17" fill="none" xmlns="http://www.w3.org/2000/svg">
<path d="M40.6654 6.40648C40.5825 6.15855 40.4228 5.94022 40.2072 5.78011C39.9915 5.62 39.73 5.52559 39.457 5.50926L34.5403 5.18657L32.7193 0.818518C32.6199 0.578003 32.4468 0.371406 32.2225 0.225473C31.9982 0.0795413 31.733 0.000993936 31.4612 0C31.1894 0.000993936 30.9242 0.0795413 30.6999 0.225473C30.4756 0.371406 30.3025 0.578003 30.2031 0.818518L28.349 5.21018L23.4655 5.50926C23.1927 5.52665 22.9318 5.62145 22.7163 5.78141C22.5009 5.94137 22.3409 6.15911 22.257 6.40648C22.1709 6.65764 22.1658 6.92758 22.2425 7.18149C22.3193 7.43539 22.4742 7.66163 22.6874 7.83102L26.4452 10.8532L25.3278 15.0324C25.2505 15.3151 25.2644 15.6134 25.3677 15.8885C25.4711 16.1636 25.659 16.4028 25.9072 16.575C26.1481 16.7394 26.4351 16.8317 26.7315 16.8401C27.0279 16.8485 27.3202 16.7727 27.5709 16.6222L31.4529 14.2847H31.4695L35.6495 16.7954C35.8639 16.9279 36.1139 16.9989 36.3696 17C36.5784 16.9984 36.784 16.9514 36.9707 16.8624C37.1573 16.7735 37.3201 16.645 37.4464 16.4869C37.5727 16.3288 37.6592 16.1453 37.6992 15.9505C37.7393 15.7556 37.7318 15.5546 37.6774 15.363L36.4937 10.7903L40.235 7.83102C40.4482 7.66163 40.6032 7.43539 40.6799 7.18149C40.7566 6.92758 40.7516 6.65764 40.6654 6.40648Z" fill="#FFC14B"/>
<path d="M85.0425 6.40648C84.9596 6.15855 84.7999 5.94022 84.5842 5.78011C84.3686 5.62 84.1071 5.52559 83.834 5.50926L78.9174 5.18657L77.0964 0.818518C76.9969 0.578003 76.8239 0.371406 76.5996 0.225473C76.3753 0.0795413 76.11 0.000993936 75.8382 0C75.5665 0.000993936 75.3012 0.0795413 75.0769 0.225473C74.8526 0.371406 74.6796 0.578003 74.5801 0.818518L72.726 5.21018L67.8425 5.50926C67.5698 5.52665 67.3088 5.62145 67.0934 5.78141C66.8779 5.94137 66.7179 6.15911 66.634 6.40648C66.5479 6.65764 66.5429 6.92758 66.6196 7.18149C66.6963 7.43539 66.8512 7.66163 67.0644 7.83102L70.8223 10.8532L69.7049 15.0324C69.6276 15.3151 69.6415 15.6134 69.7448 15.8885C69.8481 16.1636 70.0361 16.4028 70.2843 16.575C70.5252 16.7394 70.8122 16.8317 71.1085 16.8401C71.4049 16.8485 71.6972 16.7727 71.948 16.6222L75.83 14.2847H75.8465L80.0265 16.7954C80.2409 16.9279 80.4909 16.9989 80.7466 17C80.9554 16.9984 81.161 16.9514 81.3477 16.8624C81.5344 16.7735 81.6971 16.645 81.8234 16.4869C81.9497 16.3288 82.0362 16.1453 82.0763 15.9505C82.1163 15.7556 82.1088 15.5546 82.0544 15.363L80.8708 10.7903L84.6121 7.83102C84.8253 7.66163 84.9802 7.43539 85.0569 7.18149C85.1336 6.92758 85.1286 6.65764 85.0425 6.40648Z" fill="#FFC14B"/>
<path d="M107.231 6.40648C107.148 6.15855 106.988 5.94022 106.773 5.78011C106.557 5.62 106.295 5.52559 106.022 5.50926L101.106 5.18657L99.2848 0.818518C99.1853 0.578003 99.0123 0.371406 98.7879 0.225473C98.5636 0.0795413 98.2984 0.000993936 98.0266 0C97.7548 0.000993936 97.4896 0.0795413 97.2653 0.225473C97.041 0.371406 96.8679 0.578003 96.7685 0.818518L94.9144 5.21018L90.0309 5.50926C89.7582 5.52665 89.4972 5.62145 89.2817 5.78141C89.0663 5.94137 88.9063 6.15911 88.8224 6.40648C88.7363 6.65764 88.7313 6.92758 88.808 7.18149C88.8847 7.43539 89.0396 7.66163 89.2528 7.83102L93.0107 10.8532L91.8932 15.0324C91.8159 15.3151 91.8299 15.6134 91.9332 15.8885C92.0365 16.1636 92.2245 16.4028 92.4727 16.575C92.7135 16.7394 93.0005 16.8317 93.2969 16.8401C93.5933 16.8485 93.8856 16.7727 94.1364 16.6222L98.0184 14.2847H98.0349L102.215 16.7954C102.429 16.9279 102.679 16.9989 102.935 17C103.144 16.9984 103.349 16.9514 103.536 16.8624C103.723 16.7735 103.886 16.645 104.012 16.4869C104.138 16.3288 104.225 16.1453 104.265 15.9505C104.305 15.7556 104.297 15.5546 104.243 15.363L103.059 10.7903L106.8 7.83102C107.014 7.66163 107.169 7.43539 107.245 7.18149C107.322 6.92758 107.317 6.65764 107.231 6.40648Z" fill="#FFC14B"/>
<path d="M18.4769 6.40648C18.3941 6.15855 18.2343 5.94022 18.0187 5.78011C17.803 5.62 17.5415 5.52559 17.2685 5.50926L12.3518 5.18657L10.5309 0.818518C10.4314 0.578003 10.2584 0.371406 10.034 0.225473C9.80973 0.0795413 9.54452 0.000993936 9.27273 0C9.00094 0.000993936 8.73572 0.0795413 8.51142 0.225473C8.28711 0.371406 8.11403 0.578003 8.0146 0.818518L6.16051 5.21018L1.27698 5.50926C1.00425 5.52665 0.743283 5.62145 0.527839 5.78141C0.312394 5.94137 0.152385 6.15911 0.0685104 6.40648C-0.0176213 6.65764 -0.0226537 6.92758 0.0540622 7.18149C0.130778 7.43539 0.285725 7.66163 0.498924 7.83102L4.25676 10.8532L3.13934 15.0324C3.06203 15.3151 3.07594 15.6134 3.17927 15.8885C3.2826 16.1636 3.47057 16.4028 3.71874 16.575C3.95964 16.7394 4.24664 16.8317 4.54302 16.8401C4.8394 16.8485 5.13168 16.7727 5.38246 16.6222L9.26445 14.2847H9.28101L13.461 16.7954C13.6754 16.9279 13.9254 16.9989 14.1811 17C14.3899 16.9984 14.5955 16.9514 14.7822 16.8624C14.9689 16.7735 15.1316 16.645 15.2579 16.4869C15.3842 16.3288 15.4707 16.1453 15.5107 15.9505C15.5508 15.7556 15.5433 15.5546 15.4889 15.363L14.3053 10.7903L18.0465 7.83102C18.2597 7.66163 18.4147 7.43539 18.4914 7.18149C18.5681 6.92758 18.5631 6.65764 18.4769 6.40648Z" fill="#FFC14B"/>
<path d="M62.854 6.40648C62.7711 6.15855 62.6114 5.94022 62.3957 5.78011C62.1801 5.62 61.9186 5.52559 61.6455 5.50926L56.7289 5.18657L54.9079 0.818518C54.8084 0.578003 54.6354 0.371406 54.4111 0.225473C54.1867 0.0795413 53.9215 0.000993936 53.6497 0C53.378 0.000993936 53.1127 0.0795413 52.8884 0.225473C52.6641 0.371406 52.491 0.578003 52.3916 0.818518L50.5375 5.21018L45.654 5.50926C45.3813 5.52665 45.1203 5.62145 44.9049 5.78141C44.6894 5.94137 44.5294 6.15911 44.4455 6.40648C44.3594 6.65764 44.3544 6.92758 44.4311 7.18149C44.5078 7.43539 44.6627 7.66163 44.8759 7.83102L48.6338 10.8532L47.5164 15.0324C47.439 15.3151 47.453 15.6134 47.5563 15.8885C47.6596 16.1636 47.8476 16.4028 48.0958 16.575C48.3367 16.7394 48.6237 16.8317 48.92 16.8401C49.2164 16.8485 49.5087 16.7727 49.7595 16.6222L53.6415 14.2847H53.658L57.838 16.7954C58.0524 16.9279 58.3024 16.9989 58.5581 17C58.7669 16.9984 58.9725 16.9514 59.1592 16.8624C59.3459 16.7735 59.5086 16.645 59.6349 16.4869C59.7612 16.3288 59.8477 16.1453 59.8878 15.9505C59.9278 15.7556 59.9203 15.5546 59.8659 15.363L58.6823 10.7903L62.4235 7.83102C62.6367 7.66163 62.7917 7.43539 62.8684 7.18149C62.9451 6.92758 62.9401 6.65764 62.854 6.40648Z" fill="#FFC14B"/>
</svg>
